<svg fill="none" height="20" viewBox="0 0 20 20" width="20" xmlns="http://www.w3.org/2000/svg">
<path clip-rule="evenodd" d="M6.66663 1.04163C7.0118 1.04163 7.29163 1.32145 7.29163 1.66663V4.16663C7.29163 4.5118 7.0118 4.79163 6.66663 4.79163C6.32145 4.79163 6.04163 4.5118 6.04163 4.16663V1.66663C6.04163 1.32145 6.32145 1.04163 6.66663 1.04163Z" fill="#1E1E1E" fill-rule="evenodd"/>
<path clip-rule="evenodd" d="M13.3334 1.04163C13.6786 1.04163 13.9584 1.32145 13.9584 1.66663V4.16663C13.9584 4.5118 13.6786 4.79163 13.3334 4.79163C12.9882 4.79163 12.7084 4.5118 12.7084 4.16663V1.66663C12.7084 1.32145 12.9882 1.04163 13.3334 1.04163Z" fill="#04060F" fill-rule="evenodd"/>
<path clip-rule="evenodd" d="M2.29163 7.57495C2.29163 7.22977 2.57145 6.94995 2.91663 6.94995H17.0833C17.4285 6.94995 17.7083 7.22977 17.7083 7.57495C17.7083 7.92013 17.4285 8.19995 17.0833 8.19995H2.91663C2.57145 8.19995 2.29163 7.92013 2.29163 7.57495Z" fill="#04060F" fill-rule="evenodd"/>
<path clip-rule="evenodd" d="M3.94758 4.48774C3.41364 5.06275 3.125 5.9291 3.125 7.08329V14.1666C3.125 15.3208 3.41364 16.1872 3.94758 16.7622C4.47373 17.3288 5.32746 17.7083 6.66667 17.7083H13.3333C14.6725 17.7083 15.5263 17.3288 16.0524 16.7622C16.5864 16.1872 16.875 15.3208 16.875 14.1666V7.08329C16.875 5.9291 16.5864 5.06275 16.0524 4.48774C15.5263 3.92111 14.6725 3.54163 13.3333 3.54163H6.66667C5.32746 3.54163 4.47373 3.92111 3.94758 4.48774ZM3.03159 3.63718C3.8596 2.74547 5.08921 2.29163 6.66667 2.29163H13.3333C14.9108 2.29163 16.1404 2.74547 16.9684 3.63718C17.7886 4.5205 18.125 5.73748 18.125 7.08329V14.1666C18.125 15.5124 17.7886 16.7294 16.9684 17.6127C16.1404 18.5044 14.9108 18.9583 13.3333 18.9583H6.66667C5.08921 18.9583 3.8596 18.5044 3.03159 17.6127C2.21136 16.7294 1.875 15.5124 1.875 14.1666V7.08329C1.875 5.73748 2.21136 4.5205 3.03159 3.63718Z" fill="#04060F" fill-rule="evenodd"/>
<path clip-rule="evenodd" d="M9.16284 11.4167C9.16284 10.9565 9.53594 10.5834 9.99618 10.5834H10.0037C10.4639 10.5834 10.837 10.9565 10.837 11.4167C10.837 11.8769 10.4639 12.25 10.0037 12.25H9.99618C9.53594 12.25 9.16284 11.8769 9.16284 11.4167Z" fill="#04060F" fill-rule="evenodd"/>
<path clip-rule="evenodd" d="M6.07861 11.4167C6.07861 10.9565 6.45171 10.5834 6.91195 10.5834H6.91943C7.37967 10.5834 7.75277 10.9565 7.75277 11.4167C7.75277 11.8769 7.37967 12.25 6.91943 12.25H6.91195C6.45171 12.25 6.07861 11.8769 6.07861 11.4167Z" fill="#04060F" fill-rule="evenodd"/>
<path clip-rule="evenodd" d="M6.07861 13.9167C6.07861 13.4565 6.45171 13.0834 6.91195 13.0834H6.91943C7.37967 13.0834 7.75277 13.4565 7.75277 13.9167C7.75277 14.3769 7.37967 14.75 6.91943 14.75H6.91195C6.45171 14.75 6.07861 14.3769 6.07861 13.9167Z" fill="#04060F" fill-rule="evenodd"/>
</svg>
