<svg fill="none" height="24" viewBox="0 0 24 24" width="24" xmlns="http://www.w3.org/2000/svg">
<g clip-path="url(#clip0_24888_11075)">
<path d="M20.242 6.72653H11.65L10.2122 2.40109C10.1326 2.1616 9.90857 2 9.65619 2H3.7578C2.78855 2 2 2.78855 2 3.7578V15.5155C2 16.4848 2.78855 17.2733 3.7578 17.2733H10.2147L11.6408 21.5873C11.7196 21.8399 11.9532 22 12.2005 22C12.2019 22 12.2032 21.9998 12.2046 21.9998H20.2421C21.2113 21.9998 21.9999 21.2113 21.9999 20.242V8.48432C21.9998 7.51507 21.2113 6.72653 20.242 6.72653ZM3.7578 16.1015C3.43472 16.1015 3.17187 15.8386 3.17187 15.5155V3.7578C3.17187 3.43472 3.43472 3.17187 3.7578 3.17187H9.2335L13.5314 16.1015C11.3364 16.1015 5.92505 16.1015 3.7578 16.1015ZM13.4346 17.2733L12.2862 19.8062L11.4489 17.2733H13.4346ZM20.828 20.242C20.828 20.5651 20.5651 20.828 20.242 20.828H13.1096L14.8773 16.9293C14.9407 16.7895 14.9436 16.6347 14.8996 16.5023L12.0396 7.89839H20.242C20.5651 7.89839 20.828 8.16124 20.828 8.48432V20.242Z" fill="#7A869A"/>
<path d="M6.39909 7H7.39985L9.8492 13H8.55141L8.06245 11.821H5.7639L5.29322 13H4L6.39909 7ZM6.90175 8.96497L6.20259 10.7334H7.62376L6.90175 8.96497Z" fill="#7A869A"/>
<path d="M14 11H15.156L16.498 14.9893L17.8399 11H19L16.9951 17H16.0008L14 11Z" fill="#7A869A"/>
</g>
<defs>
<clipPath id="clip0_24888_11075">
<rect fill="white" height="24" rx="4" width="24"/>
</clipPath>
</defs>
</svg>
